<svg width="100%" height="100%" viewBox="0 0 1600 1600" version="1.1"
    xmlns="http://www.w3.org/2000/svg" xmlns:xlink="http://www.w3.org/1999/xlink"
    xml:space="preserve"
    style="fill-rule:evenodd;clip-rule:evenodd;stroke-linecap:round;stroke-linejoin:round;stroke-miterlimit:1.5;"><clipPath id="_clip1"><rect id="image_1712759439795_cpulns.svg" x="0" y="0" width="1600" height="1600"/></clipPath><g clip-path="url(#_clip1)"><g><path d="M843.781,62.975c417.369,-0 756.219,344.359 756.219,768.512c0,424.154 -338.85,768.513 -756.219,768.513c-417.368,-0 -756.218,-344.359 -756.218,-768.513c-0,-424.153 338.85,-768.512 756.218,-768.512Zm0,76.92c375.595,-0 680.53,309.892 680.53,691.592c-0,381.701 -304.935,691.593 -680.53,691.593c-375.594,0 -680.529,-309.892 -680.529,-691.593c0,-381.7 304.935,-691.592 680.529,-691.592Z" style="fill:#005aff;"/><rect x="328.96" y="617.831" width="997.509" height="523.033" style="fill:#005aff;"/></g><g><path d="M756.219,-0c417.368,-0 756.218,344.359 756.218,768.513c0,424.153 -338.85,768.512 -756.218,768.512c-417.369,0 -756.219,-344.359 -756.219,-768.512c0,-424.154 338.85,-768.513 756.219,-768.513Zm-0,76.92c375.594,-0 680.529,309.892 680.529,691.593c-0,381.7 -304.935,691.592 -680.529,691.592c-375.595,0 -680.53,-309.892 -680.53,-691.592c0,-381.701 304.935,-691.593 680.53,-691.593Z" style="fill:#0047ca;stroke:#0047ca;stroke-width:3.13px;"/><rect x="231.642" y="531.324" width="997.509" height="523.033" style="fill:#0047ca;stroke:#0047ca;stroke-width:3.13px;"/></g><g><path d="M229.627,672.002l117.695,210.615l112.293,-213.821l46.704,200.729l21.213,88.913l19.067,80.561l2.571,10.238l-130.405,0l-41.04,-190.477l-88.64,167.306l-59.499,-100.346l0.041,-253.718Z" style="fill:#fff;fill-rule:nonzero;"/><path d="M1047.07,695.74l-1.073,84.333l-0.643,80.021l0.643,185.371l-130.846,-0l1.287,-214.739l-0.644,-73.016l-0.643,-61.97l-28.315,0.808l-40.541,1.078l-6.006,0.269c-6.864,0 -10.296,-3.233 -10.296,-9.699c-0,-5.748 2.002,-8.981 6.006,-9.7c1.144,-0.359 4.647,-0.629 10.511,-0.808l263.195,-0c9.152,0.179 14.586,0.718 16.302,1.616c2.86,1.437 4.29,4.491 4.29,9.161c0,6.107 -3.646,9.161 -10.94,9.161l-18.661,-0.808l-49.336,-1.078l-4.29,-0Z" style="fill:#fff;fill-rule:nonzero;"/><g><path d="M583.337,1010.86l0,-6.339c-0.028,-4.399 -0.083,-7.101 -0.166,-8.105c-0.083,-1.005 -0.331,-1.905 -0.745,-2.702c-0.995,-1.94 -3.315,-2.909 -6.961,-2.909c-5.634,-0 -9.984,2.216 -13.05,6.65c-1.243,1.801 -2.292,2.702 -3.148,2.702c-0.636,-0 -1.188,-0.277 -1.658,-0.831c-0.469,-0.555 -0.704,-1.195 -0.704,-1.923c-0,-2.182 2.054,-4.434 6.163,-6.754c3.916,-2.217 8.976,-3.326 15.181,-3.326c10.203,0 17.401,1.94 21.593,5.82c1.82,1.697 3.005,3.602 3.557,5.715c0.551,2.113 0.827,5.837 0.827,11.171l0,20.627c-0.11,3.81 -0.02,6.677 0.269,8.599c0.29,1.922 0.945,3.992 1.965,6.209l-23.164,-0l-0,-5.456c-2.537,2.183 -5.054,3.828 -7.549,4.936c-2.496,1.109 -4.957,1.663 -7.384,1.663c-4.109,0 -7.763,-1.507 -10.962,-4.52c-4.164,-3.949 -6.246,-9.076 -6.246,-15.38c0,-5.577 1.685,-10.08 5.053,-13.509c3.921,-4.052 8.781,-6.079 14.579,-6.079c2.375,0 4.473,0.269 6.296,0.806c1.822,0.536 3.907,1.515 6.254,2.935Zm0,3.741c-3.475,-2.182 -6.163,-3.273 -8.066,-3.273c-1.6,-0 -2.647,0.796 -3.144,2.39c-0.276,0.866 -0.413,3.377 -0.413,7.534l-0,12.418c0.027,2.736 0.096,4.399 0.206,4.988c0.276,1.593 1.214,2.39 2.813,2.39c1.269,-0 2.682,-0.477 4.24,-1.429c1.558,-0.953 2.985,-2.208 4.281,-3.767l0.083,-21.251Z" style="fill:#fff;fill-rule:nonzero;"/><path d="M612.871,1035.85c0.552,-0 1.255,0.523 2.11,1.569c1.379,1.639 3.337,3.043 5.874,4.212c2.537,1.168 4.908,1.753 7.115,1.753c1.02,-0 1.785,-0.218 2.295,-0.654c0.511,-0.436 0.766,-1.073 0.766,-1.91c-0,-0.837 -0.352,-1.84 -1.055,-3.009c-0.703,-1.169 -2.268,-3.399 -4.694,-6.69c-5.929,-7.968 -9.768,-13.571 -11.52,-16.81c-1.752,-3.238 -2.628,-6.347 -2.628,-9.326c0,-2.597 0.6,-5.082 1.8,-7.455c1.199,-2.372 2.874,-4.39 5.025,-6.052c3.558,-2.771 7.639,-4.157 12.244,-4.157c3.392,0 6.977,0.901 10.755,2.702c2.951,1.42 4.426,2.962 4.426,4.624c0,0.52 -0.172,0.988 -0.517,1.403c-0.345,0.416 -0.738,0.624 -1.179,0.624c-0.524,-0 -1.503,-0.641 -2.937,-1.923c-2.923,-2.632 -6.108,-3.948 -9.555,-3.948c-1.213,-0 -2.13,0.242 -2.751,0.727c-0.62,0.485 -0.93,1.23 -0.93,2.234c-0,1.178 0.572,2.667 1.716,4.468c1.145,1.802 3.468,4.85 6.97,9.145c3.42,4.191 5.591,6.936 6.515,8.235c0.924,1.299 1.813,2.797 2.668,4.495c1.462,2.909 2.193,6.061 2.193,9.456c-0,5.334 -2.055,9.647 -6.164,12.937c-3.364,2.737 -7.501,4.105 -12.409,4.105c-5.46,0 -10.3,-1.524 -14.519,-4.572c-1.241,-0.935 -2.089,-1.698 -2.544,-2.286c-0.455,-0.589 -0.683,-1.23 -0.683,-1.923c0,-1.281 0.538,-1.94 1.613,-1.974Z" style="fill:#fff;fill-rule:nonzero;"/><path d="M676.118,970.438l-0.455,16.782l-0.041,1.611c2.399,0 4.578,-0.121 6.535,-0.364c0.331,-0.034 0.621,-0.052 0.869,-0.052c1.213,0 1.82,0.702 1.82,2.106c0,1.298 -0.634,1.947 -1.903,1.947c-0.386,0 -0.868,-0.034 -1.447,-0.104c-2.179,-0.208 -3.737,-0.311 -4.675,-0.311l-1.199,-0l-0.042,10.066l0.142,20.183l0.107,10.797c-0,2.529 0.152,4.295 0.457,5.3c0.305,1.004 0.832,1.506 1.581,1.506c0.997,0 2.065,-0.727 3.201,-2.182c1.109,-1.455 1.982,-3.238 2.62,-5.351c0.579,-2.009 1.268,-3.014 2.068,-3.014c0.938,0 1.407,0.658 1.407,1.974c-0,1.317 -0.469,2.953 -1.407,4.91c-0.937,1.958 -2.068,3.663 -3.392,5.118c-3.254,3.568 -7.473,5.352 -12.657,5.352c-4.881,-0 -8.659,-1.852 -11.334,-5.555c-1.379,-1.868 -2.33,-3.953 -2.854,-6.254c-0.524,-2.301 -0.786,-5.494 -0.786,-9.577l-0,-3.893l0.041,-10.953l-0,-18.583c-0.386,-0.035 -0.662,-0.052 -0.827,-0.052c-0.276,-0 -0.828,0.034 -1.655,0.104c-0.689,0.069 -1.268,0.104 -1.737,0.104c-1.351,-0 -2.027,-0.65 -2.027,-1.951c-0,-1.263 0.648,-1.894 1.944,-1.894c0.607,-0 1.034,0.017 1.282,0.052l3.02,0.259l-0,-5.871c8.163,-3.706 15.277,-7.776 21.344,-12.21Z" style="fill:#fff;fill-rule:nonzero;"/><path d="M707.059,1018.76l0,16.107c0,3.117 0.152,5.091 0.455,5.923c0.579,1.593 1.944,2.39 4.095,2.39c3.199,-0 6.363,-1.1 9.493,-3.299c3.13,-2.2 5.84,-5.24 8.129,-9.119c0.744,-1.282 1.282,-2.096 1.613,-2.442c0.331,-0.346 0.689,-0.52 1.075,-0.52c0.469,0 0.855,0.217 1.159,0.65c0.303,0.433 0.455,0.978 0.455,1.636c-0,1.455 -0.924,3.412 -2.772,5.872c-2.427,3.152 -5.439,5.715 -9.038,7.689c-3.599,1.975 -7.108,2.962 -10.527,2.962c-5.874,0 -11.059,-2.477 -15.554,-7.43c-2.619,-2.91 -4.632,-6.495 -6.039,-10.755c-1.241,-3.741 -1.861,-7.482 -1.861,-11.223c-0,-3.602 0.551,-7.213 1.654,-10.833c1.103,-3.62 2.62,-6.746 4.55,-9.379c2.234,-3.082 4.881,-5.472 7.942,-7.17c3.006,-1.662 6.15,-2.494 9.432,-2.494c5.101,0 9.72,1.888 13.857,5.664c6.453,5.888 9.652,14.427 9.596,25.615l-9.638,-0l-12.409,0.052l-5.667,0.104Zm10.589,-3.429l0,-15.14c-0.055,-3.249 -0.11,-5.194 -0.165,-5.833c-0.055,-0.64 -0.248,-1.236 -0.579,-1.789c-0.772,-1.348 -2.344,-2.022 -4.716,-2.022c-2.426,-0 -3.943,0.777 -4.55,2.333c-0.386,0.933 -0.579,3.37 -0.579,7.311l0,15.14l5.047,0.207l5.542,-0.207Z" style="fill:#fff;fill-rule:nonzero;"/><path d="M762.446,1004.83l-0.082,19.952l0.165,20.679l-21.261,-0l0.049,-2.858l0.05,-10.599l0.149,-19.069l-0.199,-21.198l-0.049,-3.014l21.22,0l-0,10.704c3.165,-4.226 5.366,-6.894 6.605,-8.002c2.862,-2.529 5.558,-3.793 8.09,-3.793c1.542,0 2.814,0.416 3.819,1.247c1.004,0.831 1.506,1.888 1.506,3.17c0,1.004 -0.302,1.835 -0.908,2.493c-0.605,0.659 -1.362,0.988 -2.27,0.988c-0.578,-0 -1.225,-0.208 -1.94,-0.624c-1.211,-0.727 -2.216,-1.091 -3.014,-1.091c-1.981,0 -3.894,0.849 -5.738,2.546c-1.843,1.697 -3.907,4.52 -6.192,8.469Z" style="fill:#fff;fill-rule:nonzero;"/></g><g><path d="M1058.84,984.741c5.901,0 8.851,1.937 8.851,5.811c-0,1.881 -0.777,3.348 -2.33,4.401c-1.553,1.053 -3.738,1.579 -6.554,1.579c-5.61,0 -8.415,-1.993 -8.415,-5.98c-0,-3.818 2.816,-5.755 8.448,-5.811Zm8.683,14.739l0,1.221l-0.067,6.569l-0.067,10.191l-0.1,15.497l0.134,8.717l0.067,3.79l-17.232,-0l0.167,-15.497l0.101,-13.686l-0.067,-7.201l-0.101,-8.001l0.034,-1.6l17.131,-0Z" style="fill:#fff;fill-rule:nonzero;"/><path d="M1091.23,1008.62l-0,28.13l-0.034,2.695c0,1.741 0.173,2.899 0.52,3.474c0.346,0.576 1.045,0.864 2.095,0.864c2.638,-0 5.23,-1.018 7.778,-3.054c2.548,-2.035 4.627,-4.765 6.236,-8.19c0.492,-1.039 0.972,-1.558 1.441,-1.558c0.336,-0 0.643,0.189 0.922,0.568c0.28,0.379 0.42,0.779 0.42,1.2c-0,1.011 -0.649,2.436 -1.945,4.275c-1.296,1.839 -2.805,3.488 -4.526,4.948c-3.509,2.948 -7.264,4.421 -11.264,4.421c-5.476,0 -10.002,-2.133 -13.578,-6.4c-4.068,-4.801 -6.102,-10.683 -6.102,-17.645c0,-7.187 2.146,-13.167 6.437,-17.939c3.598,-4.043 8.035,-6.064 13.31,-6.064c4.201,-0 7.878,1.249 11.029,3.748c1.341,1.067 2.437,2.211 3.286,3.432c0.849,1.221 1.274,2.253 1.274,3.095c-0,0.421 -0.123,0.779 -0.369,1.074c-0.246,0.295 -0.547,0.442 -0.905,0.442c-0.469,-0 -1.062,-0.674 -1.777,-2.021c-1.028,-1.881 -2.648,-3.517 -4.861,-4.906c-2.213,-1.39 -4.303,-2.085 -6.269,-2.085c-1.319,0 -2.168,0.464 -2.548,1.39c-0.38,0.926 -0.57,2.962 -0.57,6.106Z" style="fill:#fff;fill-rule:nonzero;"/><path d="M1143.27,1008.25l3.813,7.965l3.646,7.755c3.591,7.474 6.038,12.413 7.342,14.815c1.305,2.402 2.76,4.629 4.366,6.68l-19.943,-0l-6.187,-13.602c-2.274,-5.081 -4.013,-8.759 -5.216,-11.033l-0,1.937l0.033,7.58l0.067,13.139l0.034,1.979l-17.199,-0l0.161,-20.297l0.04,-11.707l-0.161,-23.498l-0.04,-1.979l17.199,-0l-0.134,27.667l-0,2.273c6.227,-7.046 10.523,-11.664 12.889,-13.854c3.079,-2.92 5.769,-4.379 8.068,-4.379c1.718,-0 2.577,0.786 2.577,2.358c0,0.561 -0.155,1.031 -0.467,1.41c-0.312,0.379 -0.701,0.569 -1.169,0.569c-0.267,-0 -0.579,-0.07 -0.935,-0.211c-0.624,-0.224 -1.103,-0.337 -1.436,-0.337c-0.936,0 -1.926,0.342 -2.973,1.025c-1.046,0.684 -2.505,1.932 -4.375,3.745Z" style="fill:#fff;fill-rule:nonzero;"/><path d="M1174.91,1023.82l0,13.054c0,2.527 0.123,4.127 0.369,4.801c0.469,1.291 1.576,1.937 3.319,1.937c2.593,0 5.157,-0.891 7.694,-2.674c2.537,-1.783 4.733,-4.246 6.588,-7.39c0.603,-1.039 1.039,-1.699 1.307,-1.98c0.269,-0.28 0.559,-0.421 0.872,-0.421c0.38,0 0.693,0.176 0.939,0.527c0.246,0.351 0.369,0.793 0.369,1.326c-0,1.179 -0.749,2.765 -2.247,4.759c-1.966,2.554 -4.408,4.632 -7.325,6.232c-2.917,1.6 -5.761,2.4 -8.532,2.4c-4.761,0 -8.963,-2.007 -12.606,-6.021c-2.123,-2.359 -3.755,-5.264 -4.894,-8.717c-1.006,-3.032 -1.509,-6.064 -1.509,-9.096c-0,-2.92 0.447,-5.847 1.341,-8.78c0.894,-2.934 2.123,-5.468 3.688,-7.601c1.81,-2.499 3.956,-4.436 6.437,-5.812c2.436,-1.347 4.984,-2.021 7.643,-2.021c4.135,-0 7.879,1.53 11.232,4.59c5.229,4.773 7.822,11.693 7.777,20.761l-7.811,-0l-10.058,0.042l-4.593,0.084Zm8.583,-2.779l-0,-12.271c-0.045,-2.633 -0.09,-4.209 -0.134,-4.727c-0.045,-0.519 -0.201,-1.002 -0.47,-1.45c-0.625,-1.093 -1.899,-1.639 -3.821,-1.639c-1.967,-0 -3.197,0.63 -3.688,1.891c-0.313,0.756 -0.47,2.731 -0.47,5.925l0,12.271l4.09,0.168l4.493,-0.168Z" style="fill:#fff;fill-rule:nonzero;"/><path d="M1220.2,984.657l-0.369,13.602l-0.033,1.305c1.944,0 3.71,-0.098 5.297,-0.295c0.268,-0.028 0.503,-0.042 0.704,-0.042c0.983,0 1.475,0.569 1.475,1.707c0,1.052 -0.514,1.578 -1.542,1.578c-0.313,-0 -0.704,-0.028 -1.173,-0.084c-1.766,-0.169 -3.029,-0.253 -3.789,-0.253l-0.972,0l-0.034,8.158l0.115,16.358l0.087,8.752c-0,2.049 0.123,3.481 0.37,4.295c0.247,0.814 0.674,1.221 1.281,1.221c0.809,0 1.674,-0.589 2.595,-1.769c0.899,-1.179 1.607,-2.624 2.123,-4.337c0.47,-1.628 1.029,-2.442 1.677,-2.442c0.76,-0 1.14,0.533 1.14,1.6c-0,1.067 -0.38,2.393 -1.14,3.979c-0.76,1.586 -1.677,2.969 -2.749,4.148c-2.638,2.892 -6.057,4.338 -10.259,4.338c-3.956,-0 -7.018,-1.501 -9.186,-4.502c-1.118,-1.515 -1.889,-3.204 -2.313,-5.069c-0.425,-1.866 -0.637,-4.453 -0.637,-7.763l-0,-3.155l0.033,-8.877l0,-15.061c-0.313,-0.028 -0.536,-0.042 -0.67,-0.042c-0.224,-0 -0.671,0.028 -1.341,0.084c-0.559,0.056 -1.029,0.084 -1.408,0.084c-1.096,0 -1.643,-0.527 -1.643,-1.58c-0,-1.024 0.525,-1.536 1.575,-1.536c0.492,-0 0.839,0.014 1.04,0.042l2.447,0.211l0,-4.759c6.616,-3.004 12.382,-6.303 17.299,-9.896Z" style="fill:#fff;fill-rule:nonzero;"/></g></g></g><g id="image_1712759439795_cpulns.svg1"></g></svg>